{
  "accessors": [
    {
      "bufferView": 1,
      "componentType": 5126,
      "count": 11176,
      "max": [
        21.64362144470215,
        194.1370086669922,
        33.80085754394531
      ],
      "min": [
        -9.845726013183594,
        -4.890748500823975,
        -33.80085754394531
      ],
      "type": "VEC3"
    },
    {
      "bufferView": 1,
      "byteOffset": 134112,
      "componentType": 5126,
      "count": 11176,
      "max": [
        1.0,
        1.0,
        1.0
      ],
      "min": [
        -1.0,
        -1.0,
        -1.0
      ],
      "type": "VEC3"
    },
    {
      "bufferView": 2,
      "componentType": 5126,
      "count": 11176,
      "max": [
        0.8705882430076599,
        0.8705882430076599,
        0.8392156958580017,
        1.0
      ],
      "min": [
        0.48235294222831726,
        0.48235294222831726,
        0.48235294222831726,
        1.0
      ],
      "type": "VEC4"
    },
    {
      "bufferView": 0,
      "componentType": 5125,
      "count": 36300,
      "type": "SCALAR"
    }
  ],
  "asset": {
    "extras": {
      "author": "Thor's Hammer (https://sketchfab.com/captaintokra)",
      "license": "CC-BY-4.0 (http://creativecommons.org/licenses/by/4.0/)",
      "source": "https://sketchfab.com/3d-models/spacex-falcon-9-strongback-854921c608784624ad2af042a24fded4",
      "title": "SpaceX Falcon 9 Strongback"
    },
    "generator": "Sketchfab-12.68.0",
    "version": "2.0"
  },
  "bufferViews": [
    {
      "buffer": 0,
      "byteLength": 145200,
      "name": "floatBufferViews",
      "target": 34963
    },
    {
      "buffer": 0,
      "byteLength": 268224,
      "byteOffset": 145200,
      "byteStride": 12,
      "name": "floatBufferViews",
      "target": 34962
    },
    {
      "buffer": 0,
      "byteLength": 178816,
      "byteOffset": 413424,
      "byteStride": 16,
      "name": "floatBufferViews",
      "target": 34962
    }
  ],
  "buffers": [
    {
      "byteLength": 592240,
      "uri": "scene.bin"
    }
  ],
  "materials": [
    {
      "doubleSided": true,
      "name": "Scene_-_Root",
      "pbrMetallicRoughness": {
        "metallicFactor": 0.0,
        "roughnessFactor": 0.6
      }
    }
  ],
  "meshes": [
    {
      "name": "Object_0",
      "primitives": [
        {
          "attributes": {
            "COLOR_0": 2,
            "NORMAL": 1,
            "POSITION": 0
          },
          "indices": 3,
          "material": 0,
          "mode": 4
        }
      ]
    }
  ],
  "nodes": [
    {
      "children": [
        1
      ],
      "matrix": [
        -0.34102776646614075,
        -5.4841446631094635e-17,
        7.572337567344005e-17,
        0.0,
        -5.4841446631094617e-17,
        0.34102776646614075,
        1.5144675134688013e-16,
        0.0,
        -7.572337567344006e-17,
        1.5144675134688013e-16,
        -0.34102776646614075,
        0.0,
        11.79789924621582,
        -94.62322998046874,
        -94.62322998046876,
        1.0
      ],
      "name": "Sketchfab_model"
    },
    {
      "children": [
        2
      ],
      "name": "strongback sX.stl.cleaner.materialmerger.gles"
    },
    {
      "mesh": 0,
      "name": "Object_2"
    }
  ],
  "scene": 0,
  "scenes": [
    {
      "name": "Sketchfab_Scene",
      "nodes": [
        0
      ]
    }
  ]
}
