{
  "accessors": [
    {
      "bufferView": 2,
      "componentType": 5126,
      "count": 8406,
      "max": [
        50.5,
        50.50000762939453,
        34.000003814697266
      ],
      "min": [
        -50.5,
        -50.50000762939453,
        0.0
      ],
      "type": "VEC3"
    },
    {
      "bufferView": 2,
      "byteOffset": 100872,
      "componentType": 5126,
      "count": 8406,
      "max": [
        1.0,
        1.0,
        1.0
      ],
      "min": [
        -1.0,
        -1.0,
        -1.0
      ],
      "type": "VEC3"
    },
    {
      "bufferView": 1,
      "componentType": 5126,
      "count": 8406,
      "max": [
        0.9792286157608032,
        0.987500011920929
      ],
      "min": [
        0.38749998807907104,
        0.01250004768371582
      ],
      "type": "VEC2"
    },
    {
      "bufferView": 0,
      "componentType": 5125,
      "count": 15240,
      "type": "SCALAR"
    },
    {
      "bufferView": 2,
      "byteOffset": 201744,
      "componentType": 5126,
      "count": 370,
      "max": [
        9.999992370605469,
        1.0,
        12.0
      ],
      "min": [
        -9.999992370605469,
        -1.0,
        -0.6950744390487671
      ],
      "type": "VEC3"
    },
    {
      "bufferView": 2,
      "byteOffset": 206184,
      "componentType": 5126,
      "count": 370,
      "max": [
        1.0,
        1.0,
        1.0
      ],
      "min": [
        -1.0,
        -1.0,
        -0.9445814490318298
      ],
      "type": "VEC3"
    },
    {
      "bufferView": 1,
      "byteOffset": 67248,
      "componentType": 5126,
      "count": 370,
      "max": [
        0.8357564806938171,
        0.9241029620170593
      ],
      "min": [
        0.4607563614845276,
        0.7932600975036621
      ],
      "type": "VEC2"
    },
    {
      "bufferView": 0,
      "byteOffset": 60960,
      "componentType": 5125,
      "count": 642,
      "type": "SCALAR"
    },
    {
      "bufferView": 2,
      "byteOffset": 210624,
      "componentType": 5126,
      "count": 370,
      "max": [
        9.999992370605469,
        1.0,
        12.0
      ],
      "min": [
        -9.999992370605469,
        -1.0,
        -0.6950744390487671
      ],
      "type": "VEC3"
    },
    {
      "bufferView": 2,
      "byteOffset": 215064,
      "componentType": 5126,
      "count": 370,
      "max": [
        1.0,
        1.0,
        1.0
      ],
      "min": [
        -1.0,
        -1.0,
        -0.9445814490318298
      ],
      "type": "VEC3"
    },
    {
      "bufferView": 1,
      "byteOffset": 70208,
      "componentType": 5126,
      "count": 370,
      "max": [
        0.8357564806938171,
        0.9241029620170593
      ],
      "min": [
        0.4607563614845276,
        0.7932600975036621
      ],
      "type": "VEC2"
    },
    {
      "bufferView": 0,
      "byteOffset": 63528,
      "componentType": 5125,
      "count": 642,
      "type": "SCALAR"
    }
  ],
  "asset": {
    "extras": {
      "author": "driejo820 (https://sketchfab.com/driejo820)",
      "license": "CC-BY-4.0 (http://creativecommons.org/licenses/by/4.0/)",
      "source": "https://sketchfab.com/3d-models/warehouse-659c00350e75414eb069f55ab8901fbf",
      "title": "Warehouse"
    },
    "generator": "Sketchfab-12.66.0",
    "version": "2.0"
  },
  "bufferViews": [
    {
      "buffer": 0,
      "byteLength": 66096,
      "name": "floatBufferViews",
      "target": 34963
    },
    {
      "buffer": 0,
      "byteLength": 73168,
      "byteOffset": 66096,
      "byteStride": 8,
      "name": "floatBufferViews",
      "target": 34962
    },
    {
      "buffer": 0,
      "byteLength": 219504,
      "byteOffset": 139264,
      "byteStride": 12,
      "name": "floatBufferViews",
      "target": 34962
    }
  ],
  "buffers": [
    {
      "byteLength": 358768,
      "uri": "scene.bin"
    }
  ],
  "images": [
    {
      "uri": "textures/Placeable_metallicRoughness.png"
    },
    {
      "uri": "textures/Placeable_emissive.png"
    }
  ],
  "materials": [
    {
      "doubleSided": true,
      "emissiveFactor": [
        1.0,
        1.0,
        1.0
      ],
      "emissiveTexture": {
        "index": 1
      },
      "name": "Placeable",
      "pbrMetallicRoughness": {
        "baseColorFactor": [
          0.8,
          0.8,
          0.8,
          1.0
        ],
        "metallicRoughnessTexture": {
          "index": 0
        },
        "roughnessFactor": 0.8040408205773457
      }
    }
  ],
  "meshes": [
    {
      "name": "Warehouse_body_Placeable_0",
      "primitives": [
        {
          "attributes": {
            "NORMAL": 1,
            "POSITION": 0,
            "TEXCOORD_0": 2
          },
          "indices": 3,
          "material": 0,
          "mode": 4
        }
      ]
    },
    {
      "name": "Warehouse_Door.F_Placeable_0",
      "primitives": [
        {
          "attributes": {
            "NORMAL": 5,
            "POSITION": 4,
            "TEXCOORD_0": 6
          },
          "indices": 7,
          "material": 0,
          "mode": 4
        }
      ]
    },
    {
      "name": "Warehouse_Door.B_Placeable_0",
      "primitives": [
        {
          "attributes": {
            "NORMAL": 9,
            "POSITION": 8,
            "TEXCOORD_0": 10
          },
          "indices": 11,
          "material": 0,
          "mode": 4
        }
      ]
    }
  ],
  "nodes": [
    {
      "children": [
        1
      ],
      "matrix": [
        1.0,
        0.0,
        0.0,
        0.0,
        0.0,
        2.220446049250313e-16,
        -1.0,
        0.0,
        0.0,
        1.0,
        2.220446049250313e-16,
        0.0,
        0.0,
        0.0,
        0.0,
        1.0
      ],
      "name": "Sketchfab_model"
    },
    {
      "children": [
        2
      ],
      "matrix": [
        1.0,
        0.0,
        0.0,
        0.0,
        0.0,
        0.0,
        1.0,
        0.0,
        0.0,
        -1.0,
        0.0,
        0.0,
        0.0,
        0.0,
        0.0,
        1.0
      ],
      "name": "Warehouse.fbx"
    },
    {
      "children": [
        3
      ],
      "name": "RootNode"
    },
    {
      "children": [
        4,
        6,
        8
      ],
      "matrix": [
        100.0,
        0.0,
        0.0,
        0.0,
        0.0,
        -1.629206793918314e-05,
        -99.99999999999868,
        0.0,
        0.0,
        99.99999999999868,
        -1.629206793918314e-05,
        0.0,
        0.0,
        0.0,
        0.0,
        1.0
      ],
      "name": "Warehouse"
    },
    {
      "children": [
        5
      ],
      "matrix": [
        1.0,
        0.0,
        0.0,
        0.0,
        0.0,
        1.0,
        -2.646977960169688e-23,
        0.0,
        0.0,
        2.646977960169688e-23,
        1.0,
        0.0,
        0.0,
        0.0,
        0.0,
        1.0
      ],
      "name": "Warehouse_body"
    },
    {
      "mesh": 0,
      "name": "Warehouse_body_Placeable_0"
    },
    {
      "children": [
        7
      ],
      "matrix": [
        1.0,
        0.0,
        0.0,
        0.0,
        0.0,
        1.0,
        -2.646977960169688e-23,
        0.0,
        0.0,
        2.646977960169688e-23,
        1.0,
        0.0,
        0.0,
        48.0,
        1.0,
        1.0
      ],
      "name": "Warehouse_Door.F"
    },
    {
      "mesh": 1,
      "name": "Warehouse_Door.F_Placeable_0"
    },
    {
      "children": [
        9
      ],
      "matrix": [
        0.9999999999999964,
        1.224646799147349e-16,
        8.742278000372477e-08,
        -0.0,
        1.2246466920853262e-16,
        -1.0,
        1.224646799147349e-16,
        -0.0,
        -8.742278000372477e-08,
        1.2246466920853262e-16,
        0.9999999999999964,
        -0.0,
        0.0,
        -48.0,
        13.0,
        1.0
      ],
      "name": "Warehouse_Door.B"
    },
    {
      "mesh": 2,
      "name": "Warehouse_Door.B_Placeable_0"
    }
  ],
  "samplers": [
    {
      "magFilter": 9729,
      "minFilter": 9987,
      "wrapS": 10497,
      "wrapT": 10497
    }
  ],
  "scene": 0,
  "scenes": [
    {
      "name": "Sketchfab_Scene",
      "nodes": [
        0
      ]
    }
  ],
  "textures": [
    {
      "sampler": 0,
      "source": 0
    },
    {
      "sampler": 0,
      "source": 1
    }
  ]
}
